<?xml version="1.0" encoding="UTF-8"?>
<svg xmlns="http://www.w3.org/2000/svg" xmlns:xlink="http://www.w3.org/1999/xlink" width="2501" height="2501" viewBox="0 0 2501 2501">
<path fill-rule="evenodd" fill="rgb(19.993591%, 19.993591%, 19.993591%)" fill-opacity="1" d="M 1188.691406 878.859375 L 426.578125 1368.121094 C 422.996094 1370.421875 421 1374.078125 421 1378.328125 L 421 1472.398438 C 421 1476.300781 422.65625 1479.660156 425.75 1482.03125 C 428.84375 1484.410156 432.511719 1485.140625 436.28125 1484.128906 L 1196.128906 1280.53125 C 1201.480469 1279.089844 1205.089844 1274.421875 1205.121094 1268.871094 L 1207.390625 889.148438 C 1207.421875 884.578125 1205.109375 880.640625 1201.101562 878.441406 C 1197.101562 876.238281 1192.539062 876.390625 1188.691406 878.859375 Z M 1312.988281 878.859375 L 2075.101562 1368.121094 C 2078.679688 1370.421875 2080.679688 1374.078125 2080.679688 1378.328125 L 2080.679688 1472.398438 C 2080.679688 1476.300781 2079.03125 1479.660156 2075.929688 1482.03125 C 2072.839844 1484.410156 2069.171875 1485.140625 2065.398438 1484.128906 L 1305.550781 1280.53125 C 1300.199219 1279.089844 1296.589844 1274.421875 1296.558594 1268.871094 L 1294.289062 889.148438 C 1294.261719 884.578125 1296.570312 880.640625 1300.578125 878.441406 C 1304.578125 876.238281 1309.140625 876.390625 1312.988281 878.859375 "/>
<path fill-rule="evenodd" fill="rgb(19.993591%, 19.993591%, 19.993591%)" fill-opacity="1" d="M 1218.078125 1709.171875 L 949.828125 1991.511719 C 947.484375 1993.980469 946.3125 1996.910156 946.3125 2000.3125 L 946.3125 2047.03125 C 946.3125 2051.480469 948.382812 2055.300781 952.105469 2057.730469 C 955.828125 2060.164062 960.160156 2060.519531 964.230469 2058.730469 L 1231.710938 1941.226562 C 1236.441406 1939.148438 1239.328125 1934.742188 1239.351562 1929.574219 L 1240.121094 1718.019531 C 1240.140625 1712.675781 1237.058594 1708.105469 1232.101562 1706.113281 C 1227.140625 1704.125 1221.761719 1705.296875 1218.078125 1709.171875 Z M 1294.769531 1709.171875 L 1563.019531 1991.511719 C 1565.371094 1993.980469 1566.539062 1996.910156 1566.539062 2000.3125 L 1566.539062 2047.03125 C 1566.539062 2051.480469 1564.46875 2055.300781 1560.738281 2057.730469 C 1557.019531 2060.164062 1552.691406 2060.519531 1548.621094 2058.730469 L 1281.140625 1941.226562 C 1276.410156 1939.148438 1273.519531 1934.742188 1273.5 1929.574219 L 1272.730469 1718.019531 C 1272.710938 1712.675781 1275.789062 1708.105469 1280.75 1706.113281 C 1285.710938 1704.125 1291.089844 1705.296875 1294.769531 1709.171875 "/>
<path fill-rule="evenodd" fill="rgb(19.993591%, 19.993591%, 19.993591%)" fill-opacity="1" d="M 1308.828125 1848.382812 C 1308.828125 1849.378906 1308.828125 1850.371094 1308.828125 1851.367188 C 1308.828125 1852.671875 1308.839844 1853.976562 1308.839844 1855.277344 C 1308.839844 1856.578125 1308.839844 1857.878906 1308.851562 1859.175781 L 1308.859375 1863.058594 C 1308.859375 1864.351562 1308.859375 1865.640625 1308.859375 1866.929688 C 1308.871094 1868.214844 1308.871094 1869.5 1308.871094 1870.78125 C 1308.871094 1872.0625 1308.871094 1873.34375 1308.871094 1874.621094 C 1308.871094 1877.171875 1308.871094 1879.714844 1308.859375 1882.242188 C 1308.859375 1883.507812 1308.851562 1884.769531 1308.851562 1886.027344 C 1308.839844 1887.285156 1308.828125 1888.539062 1308.820312 1889.792969 C 1308.800781 1892.296875 1308.769531 1894.785156 1308.738281 1897.261719 C 1308.71875 1898.496094 1308.699219 1899.730469 1308.679688 1900.960938 C 1308.648438 1902.191406 1308.628906 1903.417969 1308.601562 1904.640625 C 1308.570312 1905.859375 1308.539062 1907.078125 1308.5 1908.292969 C 1308.46875 1909.507812 1308.429688 1910.71875 1308.390625 1911.921875 C 1308.308594 1914.335938 1308.21875 1916.726562 1308.109375 1919.105469 C 1308.058594 1920.292969 1308 1921.476562 1307.941406 1922.652344 C 1307.871094 1923.832031 1307.808594 1925.007812 1307.738281 1926.175781 C 1307.601562 1928.515625 1307.441406 1930.835938 1307.269531 1933.132812 C 1307.179688 1934.285156 1307.078125 1935.429688 1306.988281 1936.566406 C 1306.890625 1937.707031 1306.789062 1938.839844 1306.679688 1939.96875 C 1306.570312 1941.097656 1306.460938 1942.222656 1306.339844 1943.339844 C 1306.21875 1944.457031 1306.101562 1945.570312 1305.96875 1946.675781 C 1305.839844 1947.78125 1305.710938 1948.882812 1305.570312 1949.980469 C 1305.429688 1951.074219 1305.28125 1952.164062 1305.128906 1953.246094 C 1304.96875 1954.328125 1304.820312 1955.40625 1304.648438 1956.480469 C 1304.488281 1957.550781 1304.308594 1958.617188 1304.140625 1959.675781 C 1303.960938 1960.734375 1303.769531 1961.785156 1303.578125 1962.835938 C 1303.390625 1963.878906 1303.191406 1964.921875 1302.988281 1965.953125 C 1302.78125 1966.988281 1302.570312 1968.015625 1302.351562 1969.035156 C 1302.128906 1970.054688 1301.898438 1971.070312 1301.671875 1972.078125 C 1301.429688 1973.085938 1301.191406 1974.085938 1300.941406 1975.078125 C 1300.441406 1977.066406 1299.910156 1979.023438 1299.339844 1980.953125 C 1299.058594 1981.921875 1298.769531 1982.878906 1298.46875 1983.828125 C 1297.269531 1987.632812 1295.941406 1991.316406 1294.460938 1994.875 C 1294.078125 1995.765625 1293.699219 1996.644531 1293.308594 1997.519531 C 1292.53125 1999.269531 1291.710938 2000.984375 1290.851562 2002.664062 C 1277.960938 2027.851562 1264.410156 2040.398438 1250.578125 2039.886719 C 1238.359375 2039.4375 1225.910156 2028.773438 1213.53125 2007.609375 C 1212.589844 2005.996094 1211.691406 2004.347656 1210.828125 2002.664062 C 1209.96875 2000.984375 1209.148438 1999.269531 1208.371094 1997.519531 C 1207.980469 1996.644531 1207.589844 1995.765625 1207.21875 1994.875 C 1205.738281 1991.316406 1204.410156 1987.632812 1203.210938 1983.828125 C 1202.910156 1982.878906 1202.621094 1981.921875 1202.339844 1980.953125 C 1201.769531 1979.023438 1201.238281 1977.066406 1200.738281 1975.078125 C 1200.488281 1974.085938 1200.25 1973.085938 1200.011719 1972.078125 C 1199.78125 1971.070312 1199.550781 1970.054688 1199.328125 1969.035156 C 1199.109375 1968.015625 1198.898438 1966.988281 1198.691406 1965.953125 C 1198.488281 1964.921875 1198.289062 1963.878906 1198.101562 1962.835938 C 1197.910156 1961.785156 1197.71875 1960.734375 1197.539062 1959.675781 C 1197.371094 1958.617188 1197.191406 1957.550781 1197.03125 1956.480469 C 1196.859375 1955.40625 1196.710938 1954.328125 1196.550781 1953.246094 C 1196.398438 1952.164062 1196.25 1951.074219 1196.109375 1949.980469 C 1195.96875 1948.882812 1195.839844 1947.78125 1195.710938 1946.675781 C 1195.578125 1945.570312 1195.460938 1944.457031 1195.339844 1943.339844 C 1195.21875 1942.222656 1195.109375 1941.097656 1195 1939.96875 C 1194.890625 1938.839844 1194.789062 1937.707031 1194.691406 1936.566406 C 1194.589844 1935.429688 1194.5 1934.285156 1194.410156 1933.132812 C 1194.238281 1930.835938 1194.078125 1928.515625 1193.941406 1926.175781 C 1193.871094 1925.007812 1193.808594 1923.832031 1193.738281 1922.652344 C 1193.679688 1921.476562 1193.621094 1920.292969 1193.570312 1919.105469 C 1193.460938 1916.726562 1193.371094 1914.335938 1193.289062 1911.921875 C 1193.25 1910.71875 1193.210938 1909.507812 1193.179688 1908.292969 C 1193.140625 1907.078125 1193.109375 1905.859375 1193.078125 1904.640625 C 1193.050781 1903.417969 1193.03125 1902.191406 1193 1900.960938 C 1192.980469 1899.730469 1192.960938 1898.496094 1192.941406 1897.261719 C 1192.910156 1894.785156 1192.878906 1892.296875 1192.859375 1889.792969 C 1192.851562 1888.539062 1192.839844 1887.285156 1192.828125 1886.027344 C 1192.828125 1884.769531 1192.820312 1883.507812 1192.820312 1882.242188 C 1192.808594 1879.714844 1192.808594 1877.171875 1192.808594 1874.621094 C 1192.808594 1873.34375 1192.808594 1872.0625 1192.808594 1870.78125 C 1192.808594 1869.5 1192.808594 1868.214844 1192.820312 1866.929688 C 1192.820312 1865.640625 1192.820312 1864.351562 1192.820312 1863.058594 L 1192.828125 1859.175781 C 1192.839844 1857.878906 1192.839844 1856.578125 1192.839844 1855.277344 C 1192.839844 1853.976562 1192.851562 1852.671875 1192.851562 1851.367188 C 1192.851562 1850.371094 1192.851562 1849.378906 1192.851562 1848.382812 L 1172.289062 1848.382812 C 1157.460938 1848.382812 1145.640625 1836.472656 1145.03125 1821.65625 L 1107.738281 908.261719 C 1107.738281 908.089844 1107.738281 907.949219 1107.738281 907.789062 L 1107.738281 907.730469 C 1107.738281 904.5 1107.738281 901.269531 1107.730469 898.050781 C 1107.730469 894.828125 1107.71875 891.609375 1107.71875 888.398438 C 1107.710938 885.191406 1107.699219 881.980469 1107.699219 878.78125 L 1107.671875 869.199219 C 1107.671875 866.011719 1107.660156 862.820312 1107.648438 859.648438 C 1107.648438 856.46875 1107.640625 853.300781 1107.640625 850.140625 C 1107.628906 846.96875 1107.628906 843.820312 1107.628906 840.671875 L 1107.628906 840.660156 C 1107.628906 834.359375 1107.628906 828.089844 1107.648438 821.851562 C 1107.660156 818.730469 1107.679688 815.621094 1107.691406 812.511719 C 1107.710938 809.410156 1107.730469 806.308594 1107.761719 803.21875 C 1107.808594 797.050781 1107.878906 790.898438 1107.96875 784.800781 C 1108.011719 781.738281 1108.058594 778.699219 1108.121094 775.660156 C 1108.179688 772.628906 1108.238281 769.601562 1108.308594 766.589844 C 1108.378906 763.570312 1108.460938 760.570312 1108.539062 757.570312 C 1108.621094 754.570312 1108.71875 751.589844 1108.808594 748.609375 C 1109.011719 742.660156 1109.238281 736.761719 1109.511719 730.890625 C 1109.648438 727.960938 1109.789062 725.039062 1109.941406 722.128906 C 1110.101562 719.21875 1110.261719 716.320312 1110.429688 713.441406 C 1110.78125 707.671875 1111.160156 701.941406 1111.601562 696.269531 C 1111.808594 693.429688 1112.039062 690.609375 1112.28125 687.800781 C 1112.519531 684.980469 1112.78125 682.191406 1113.039062 679.398438 C 1113.308594 676.621094 1113.578125 673.839844 1113.878906 671.089844 L 1113.878906 671.078125 C 1114.171875 668.328125 1114.46875 665.578125 1114.789062 662.851562 C 1115.109375 660.121094 1115.441406 657.398438 1115.789062 654.699219 C 1116.140625 652 1116.5 649.308594 1116.871094 646.640625 C 1117.25 643.960938 1117.640625 641.300781 1118.050781 638.660156 C 1118.460938 636.019531 1118.878906 633.390625 1119.320312 630.769531 C 1119.761719 628.160156 1120.210938 625.558594 1120.691406 622.980469 C 1121.160156 620.398438 1121.648438 617.828125 1122.160156 615.28125 C 1122.660156 612.730469 1123.191406 610.191406 1123.730469 607.671875 C 1124.269531 605.160156 1124.828125 602.648438 1125.410156 600.171875 C 1125.988281 597.679688 1126.589844 595.210938 1127.210938 592.761719 C 1128.441406 587.859375 1129.75 583.019531 1131.148438 578.261719 C 1131.839844 575.878906 1132.558594 573.511719 1133.300781 571.171875 C 1188.140625 396.898438 1313.539062 396.898438 1368.378906 571.171875 C 1369.121094 573.511719 1369.839844 575.878906 1370.53125 578.261719 C 1371.929688 583.019531 1373.238281 587.859375 1374.46875 592.761719 C 1375.089844 595.210938 1375.691406 597.679688 1376.269531 600.171875 C 1376.851562 602.648438 1377.410156 605.160156 1377.949219 607.671875 C 1378.488281 610.191406 1379.019531 612.730469 1379.519531 615.28125 C 1380.03125 617.828125 1380.519531 620.398438 1380.988281 622.980469 C 1381.460938 625.558594 1381.921875 628.160156 1382.359375 630.769531 C 1382.800781 633.390625 1383.21875 636.019531 1383.628906 638.660156 C 1384.039062 641.300781 1384.429688 643.960938 1384.808594 646.640625 C 1385.179688 649.308594 1385.539062 652 1385.890625 654.699219 C 1386.238281 657.398438 1386.570312 660.121094 1386.890625 662.851562 C 1387.210938 665.578125 1387.511719 668.328125 1387.800781 671.078125 L 1387.800781 671.089844 C 1388.101562 673.839844 1388.371094 676.621094 1388.640625 679.398438 C 1388.898438 682.191406 1389.160156 684.980469 1389.398438 687.800781 C 1389.640625 690.609375 1389.871094 693.429688 1390.078125 696.269531 C 1390.519531 701.941406 1390.898438 707.671875 1391.25 713.441406 C 1391.421875 716.320312 1391.578125 719.21875 1391.738281 722.128906 C 1391.890625 725.039062 1392.03125 727.960938 1392.171875 730.890625 C 1392.429688 736.761719 1392.671875 742.660156 1392.859375 748.609375 C 1392.960938 751.589844 1393.058594 754.570312 1393.140625 757.570312 C 1393.21875 760.570312 1393.300781 763.570312 1393.371094 766.589844 C 1393.441406 769.601562 1393.5 772.628906 1393.558594 775.660156 C 1393.621094 778.699219 1393.671875 781.738281 1393.710938 784.800781 C 1393.800781 790.898438 1393.871094 797.050781 1393.921875 803.21875 C 1393.949219 806.308594 1393.96875 809.410156 1393.988281 812.511719 C 1394 815.621094 1394.019531 818.730469 1394.03125 821.851562 C 1394.050781 828.089844 1394.050781 834.359375 1394.050781 840.660156 L 1394.050781 840.671875 C 1394.050781 843.820312 1394.050781 846.96875 1394.039062 850.140625 C 1394.039062 853.300781 1394.03125 856.46875 1394.03125 859.648438 C 1394.019531 862.820312 1394.011719 866.011719 1394.011719 869.199219 L 1393.980469 878.78125 C 1393.980469 881.980469 1393.96875 885.191406 1393.960938 888.398438 C 1393.960938 891.609375 1393.949219 894.828125 1393.949219 898.050781 C 1393.941406 901.269531 1393.941406 904.5 1393.941406 907.730469 L 1393.941406 907.789062 C 1393.941406 907.949219 1393.941406 908.089844 1393.941406 908.261719 L 1356.640625 1821.65625 C 1356.039062 1836.472656 1344.21875 1848.382812 1329.390625 1848.382812 Z M 1107.738281 908.261719 C 1107.738281 908.089844 1107.738281 907.949219 1107.738281 907.789062 L 1107.738281 908.261719 "/>
</svg>
